<?xml version="1.0" standalone="no"?>
<!DOCTYPE svg PUBLIC "-//W3C//DTD SVG 20010904//EN"
 "http://www.w3.org/TR/2001/REC-SVG-20010904/DTD/svg10.dtd">
<svg version="1.0" xmlns="http://www.w3.org/2000/svg"
 width="2005.000000pt" height="2015.000000pt" viewBox="0 0 2005.000000 2015.000000"
 preserveAspectRatio="xMidYMid meet">

<g transform="translate(0.000000,2015.000000) scale(0.100000,-0.100000)"
fill="#000000" stroke="none">
<path d="M10909 18659 c-96 -13 -388 -147 -514 -235 -44 -31 -96 -64 -115 -74
-19 -10 -82 -57 -140 -105 -58 -48 -117 -93 -132 -101 -30 -15 -138 -96 -209
-155 -39 -33 -47 -45 -53 -85 -5 -43 -14 -55 -105 -145 -54 -53 -107 -99 -117
-101 -30 -5 -21 66 17 127 17 27 33 64 36 82 5 29 3 33 -15 33 -30 0 -115 -86
-140 -140 -11 -25 -30 -54 -42 -65 -12 -11 -33 -40 -45 -65 -13 -25 -39 -57
-58 -72 -46 -36 -85 -149 -68 -200 14 -45 31 -188 31 -265 0 -44 -7 -82 -24
-123 -13 -32 -27 -74 -31 -92 -3 -18 -20 -77 -37 -131 -30 -95 -30 -100 -19
-175 7 -42 26 -131 42 -196 16 -66 29 -137 29 -158 0 -21 9 -64 21 -96 11 -31
26 -77 33 -102 9 -32 18 -46 32 -48 48 -7 65 46 84 263 6 66 22 167 36 225 23
93 27 135 33 355 l6 250 53 107 c73 148 106 172 382 274 36 14 74 29 85 34 23
10 128 38 265 70 70 16 138 23 259 27 134 3 170 7 200 23 140 71 531 85 716
26 47 -15 137 -32 220 -42 90 -10 151 -21 170 -33 17 -9 57 -28 90 -41 33 -13
72 -32 87 -42 14 -10 30 -18 35 -18 4 0 31 -19 58 -43 28 -24 82 -64 121 -90
120 -77 144 -129 198 -422 25 -138 27 -163 56 -775 9 -212 20 -253 72 -287 21
-14 38 -29 38 -33 0 -3 -7 -31 -16 -61 -14 -44 -15 -74 -8 -164 11 -152 10
-262 -4 -312 -11 -40 -35 -374 -27 -382 2 -2 9 9 16 25 6 16 15 38 20 49 5 11
13 45 18 75 28 165 45 254 66 335 13 50 26 127 30 173 3 46 12 115 21 154 17
83 8 125 -32 157 -33 26 -82 94 -89 124 -8 29 26 181 61 282 33 93 52 153 79
255 21 78 23 100 19 282 -5 222 -11 249 -73 298 -59 48 -78 102 -84 245 -6
136 -20 184 -89 298 -62 104 -122 189 -253 357 -137 175 -238 283 -313 332
-20 14 -50 33 -65 44 -25 17 -77 51 -158 105 -78 52 -169 99 -204 105 -22 3
-64 17 -94 31 -29 13 -79 31 -110 39 -62 17 -264 25 -352 13z"/>
<path d="M11960 16534 c-50 -16 -237 -58 -346 -79 -160 -29 -255 -71 -288
-127 -22 -36 -20 -57 9 -100 14 -20 25 -42 25 -48 0 -7 -14 -43 -30 -81 -45
-101 -56 -167 -41 -247 17 -92 32 -133 50 -130 19 4 49 91 50 145 1 52 21 73
68 71 22 -1 39 4 41 11 2 7 15 24 27 39 20 22 27 25 42 16 24 -15 29 -76 8
-98 -9 -9 -25 -16 -36 -16 -32 0 -59 -19 -59 -40 0 -64 159 -70 275 -10 21 11
55 20 75 20 19 0 40 4 47 8 7 4 24 46 39 92 32 102 38 110 76 110 39 0 78 -42
78 -86 0 -26 -9 -40 -42 -69 -24 -20 -60 -45 -80 -56 -38 -19 -46 -40 -28 -69
22 -36 205 1 276 55 112 85 124 115 124 300 0 158 -12 200 -73 259 -23 23 -64
65 -90 94 -46 50 -50 52 -100 51 -29 0 -72 -7 -97 -15z m55 -274 c-3 -5 -13
-10 -21 -10 -8 0 -14 5 -14 10 0 6 9 10 21 10 11 0 17 -4 14 -10z m-297 -178
c5 -17 -27 -27 -41 -13 -9 9 -8 14 3 21 18 11 32 8 38 -8z"/>
<path d="M10012 16515 c-95 -43 -222 -197 -222 -269 0 -13 -18 -63 -40 -111
-46 -99 -48 -122 -20 -181 30 -60 79 -79 161 -62 40 8 65 9 76 2 15 -9 54 -68
72 -110 12 -28 66 -72 97 -80 13 -3 46 -3 72 1 26 4 91 8 145 9 l98 1 37 -75
c33 -67 80 -130 97 -130 3 0 22 15 41 34 22 21 53 38 82 45 40 10 60 26 141
109 101 104 131 145 131 178 0 12 12 43 26 70 30 56 33 106 10 129 -9 9 -28
37 -43 63 -39 67 -146 204 -189 241 -47 42 -68 50 -195 72 -59 10 -122 25
-140 32 -54 23 -248 57 -319 56 -46 0 -80 -7 -118 -24z m288 -425 c0 -21 -24
-28 -35 -10 -8 14 3 30 21 30 8 0 14 -9 14 -20z m-117 -17 c3 -5 7 -42 8 -83
4 -71 3 -75 -18 -78 -43 -6 -123 51 -123 87 0 11 12 33 26 50 21 25 34 31 64
31 21 0 41 -3 43 -7z m381 -89 c22 -8 20 -19 -6 -44 l-22 -21 -8 22 c-5 13 -4
27 3 35 13 16 12 16 33 8z m-86 -161 c-2 -23 -9 -29 -33 -31 -19 -3 -33 2 -41
13 -20 28 -6 45 38 45 37 0 39 -2 36 -27z"/>
<path d="M8933 15774 c-8 -21 28 -94 48 -94 39 0 54 64 21 93 -23 21 -61 22
-69 1z"/>
<path d="M9017 15626 c-57 -69 -62 -175 -11 -236 42 -50 112 -38 133 21 23 66
5 193 -32 226 -40 36 -53 35 -90 -11z"/>
<path d="M10639 15408 c-8 -7 -28 -30 -43 -51 -15 -21 -39 -42 -52 -47 -22 -9
-27 -20 -37 -84 -8 -49 19 -121 59 -155 29 -26 41 -31 68 -26 36 7 106 -16
106 -35 0 -29 -26 -50 -92 -76 -85 -32 -139 -63 -188 -109 -19 -18 -53 -38
-75 -45 -22 -7 -53 -25 -70 -40 -26 -24 -61 -43 -74 -41 -3 1 -5 14 -5 30 -1
17 -12 42 -28 59 -15 17 -40 57 -55 89 -21 41 -36 59 -51 61 -16 2 -22 -2 -23
-15 0 -16 -1 -16 -9 2 -8 18 -9 18 -9 2 -1 -16 -7 -18 -41 -12 -41 7 -70 -8
-70 -36 0 -21 24 -79 32 -79 4 0 8 -11 8 -25 0 -14 -5 -25 -11 -25 -6 0 -9
-10 -8 -22 4 -40 -24 -119 -39 -113 -7 3 -17 5 -22 5 -4 0 -10 15 -14 33 -5
25 -9 29 -16 17 -5 -8 -7 -29 -4 -46 5 -25 1 -35 -17 -48 -31 -21 -82 -20
-102 2 -8 9 -21 53 -28 96 -17 98 -33 121 -77 111 -54 -11 -87 -80 -112 -235
-7 -41 -14 -80 -15 -87 -2 -6 1 -43 6 -82 11 -74 73 -232 115 -286 12 -17 32
-51 43 -77 11 -26 45 -80 76 -120 30 -40 60 -91 66 -113 16 -66 41 -128 62
-158 13 -20 22 -56 28 -115 11 -115 14 -122 49 -166 16 -21 32 -55 35 -75 3
-20 13 -65 22 -101 8 -36 21 -96 29 -135 7 -38 18 -91 25 -117 16 -63 4 -78
-65 -78 -29 0 -61 -6 -71 -14 -19 -14 -19 -15 0 -37 22 -24 148 -109 163 -109
5 0 30 -14 55 -31 26 -17 78 -39 115 -48 37 -10 96 -32 132 -49 36 -16 90 -33
121 -37 67 -7 88 -26 96 -83 5 -39 4 -41 -54 -86 -32 -25 -67 -60 -77 -77 -10
-17 -41 -54 -68 -82 -28 -29 -68 -79 -89 -111 -22 -33 -76 -96 -120 -140 -45
-45 -105 -112 -135 -151 -62 -83 -132 -151 -193 -191 -41 -27 -51 -29 -128
-27 -89 2 -98 -3 -65 -43 23 -29 72 -53 134 -64 51 -10 52 -10 122 37 38 27
79 57 91 68 62 59 105 95 114 95 6 0 14 6 18 14 4 8 25 24 46 36 23 14 37 29
37 42 0 11 11 33 25 50 14 16 25 40 25 53 0 12 6 28 14 34 8 7 18 26 21 42 11
50 42 62 157 61 55 -1 109 3 119 9 23 12 24 44 3 95 -19 46 -13 150 11 174 28
27 48 0 71 -96 11 -49 27 -102 36 -119 8 -16 21 -48 28 -70 7 -22 38 -71 69
-109 31 -37 61 -76 66 -85 6 -9 25 -37 42 -63 18 -26 42 -68 54 -93 24 -51 39
-55 84 -24 39 27 72 100 86 192 10 69 83 251 114 287 7 8 23 56 35 105 12 50
28 97 36 105 34 34 86 -80 71 -157 -3 -16 -1 -36 4 -45 9 -17 171 -128 187
-128 11 0 89 -75 108 -105 9 -14 22 -25 28 -25 6 0 84 -73 171 -162 158 -159
209 -197 266 -198 14 0 34 6 44 14 17 12 17 17 5 46 -7 18 -59 79 -115 136
-56 56 -130 138 -164 181 -34 43 -70 87 -79 98 -10 11 -26 33 -36 50 -11 16
-47 59 -80 95 -34 37 -83 93 -111 125 -27 33 -87 97 -132 143 -65 66 -83 90
-83 113 0 35 23 49 80 49 23 0 60 10 88 24 27 15 75 28 112 32 85 9 131 33
201 107 58 61 65 76 83 185 5 29 0 40 -42 85 -39 43 -54 69 -80 148 -27 81
-31 111 -32 200 -2 110 12 218 37 309 15 52 79 144 125 178 20 15 169 207 188
242 7 14 26 41 41 60 15 19 37 62 49 95 12 33 25 64 30 70 5 6 20 62 35 125
33 147 61 241 91 308 14 30 27 74 31 98 6 43 5 44 -24 44 -16 0 -33 4 -39 9
-5 4 -24 11 -42 15 -28 5 -38 1 -63 -23 -23 -24 -29 -38 -29 -74 0 -93 -31
-207 -56 -207 -16 0 -50 -56 -59 -97 -3 -18 -11 -33 -16 -33 -5 0 -17 -17 -28
-39 -11 -21 -34 -50 -50 -64 -16 -13 -37 -41 -45 -61 -18 -43 -39 -46 -62 -8
-9 15 -25 39 -35 53 -15 22 -18 53 -21 190 -3 184 -7 195 -86 249 -20 14 -74
53 -119 87 -91 69 -116 83 -195 113 -52 19 -98 52 -98 69 0 5 19 27 43 50 40
39 42 44 42 99 0 97 -66 157 -124 114 -15 -11 -38 -23 -51 -27 -14 -4 -39 -14
-57 -22 -29 -13 -35 -13 -80 10 -26 14 -64 41 -83 61 -30 30 -42 36 -79 36
-50 0 -121 -34 -192 -92 -57 -46 -89 -59 -113 -46 -16 9 -18 22 -15 112 l4
101 -25 3 c-14 2 -32 -3 -41 -10z m735 -642 c26 -8 62 -26 81 -40 18 -14 55
-34 81 -43 53 -20 76 -45 57 -64 -14 -14 -39 -9 -186 34 -81 24 -109 27 -338
33 -220 6 -249 9 -247 23 8 41 113 62 241 48 79 -9 107 -8 159 5 82 20 96 21
152 4z m-1158 -143 c-4 -32 -10 -61 -14 -65 -14 -14 -34 10 -39 49 -4 34 -2
43 18 57 37 26 42 20 35 -41z m1524 -162 c13 -25 13 -77 0 -101 -6 -11 -31
-31 -55 -46 -25 -14 -45 -29 -45 -33 0 -4 -26 -27 -57 -50 -32 -23 -110 -94
-174 -157 -64 -63 -125 -114 -135 -114 -28 0 -64 40 -64 71 0 32 27 61 80 89
44 23 109 108 116 152 5 26 1 38 -15 52 -19 18 -44 20 -229 26 -206 6 -262 16
-262 44 0 22 25 27 185 38 162 10 255 7 351 -13 78 -16 187 1 231 37 34 29 59
30 73 5z m-1244 -66 c23 -35 13 -56 -23 -46 -22 6 -29 14 -31 39 -3 27 0 32
17 32 11 0 28 -11 37 -25z m205 -172 c17 -19 107 -63 131 -63 61 0 178 -86
178 -129 0 -26 -36 -55 -57 -47 -36 14 -109 70 -128 99 -14 21 -33 33 -65 41
-31 8 -60 26 -93 57 -26 25 -47 49 -47 52 0 15 68 6 81 -10z"/>
<path d="M6946 15314 c-43 -7 -86 -19 -95 -27 -9 -8 -27 -18 -41 -22 -31 -10
-117 -79 -156 -126 -86 -102 -123 -214 -124 -367 0 -34 -5 -71 -12 -81 -9 -15
-7 -31 11 -81 19 -52 22 -75 17 -139 -3 -42 -5 -101 -5 -131 -1 -49 -4 -59
-36 -92 -20 -21 -43 -38 -51 -38 -8 0 -14 -4 -14 -10 0 -15 38 -12 68 5 75 41
145 66 200 71 34 4 67 13 73 20 20 24 68 17 101 -16 38 -38 62 -51 81 -44 9 3
24 1 34 -4 14 -8 24 -5 42 9 14 12 39 19 63 19 106 0 287 93 365 187 82 99
136 236 136 348 0 92 -66 280 -117 330 -9 9 -19 22 -23 28 -16 25 -109 95
-161 121 -52 26 -190 57 -247 55 -16 -1 -65 -7 -109 -15z m204 -230 c119 -57
203 -153 241 -275 33 -107 22 -169 -31 -169 -37 0 -46 17 -52 100 -6 76 -24
115 -80 176 -77 83 -170 121 -271 109 -68 -7 -87 3 -87 46 0 41 23 50 125 46
76 -2 100 -8 155 -33z m-46 -138 c92 -54 155 -144 158 -227 3 -82 -70 -89 -84
-9 -9 53 -45 109 -93 146 -28 21 -51 29 -103 33 -65 6 -67 7 -70 36 -3 19 2
34 15 43 27 20 126 8 177 -22z m-53 -137 c47 -33 69 -73 69 -123 0 -40 -5 -51
-39 -85 -51 -51 -93 -60 -154 -33 -49 22 -87 77 -87 128 0 37 27 90 57 110 58
38 105 39 154 3z"/>
<path d="M6266 14681 c-4 -5 -2 -12 3 -15 5 -4 12 -2 15 3 4 5 2 12 -3 15 -5
4 -12 2 -15 -3z"/>
<path d="M5902 14524 c-32 -34 -35 -54 -7 -54 8 0 17 11 21 24 3 14 12 27 20
30 14 5 20 37 7 35 -5 0 -23 -16 -41 -35z"/>
<path d="M6087 14543 c-4 -3 -7 -13 -7 -22 1 -13 3 -13 11 2 11 19 8 33 -4 20z"/>
<path d="M6034 14457 c-8 -21 2 -35 16 -21 5 5 6 15 0 24 -8 12 -10 12 -16 -3z"/>
<path d="M6274 14399 c-3 -6 -1 -16 5 -22 8 -8 11 -5 11 11 0 24 -5 28 -16 11z"/>
<path d="M5780 14375 c0 -10 7 -15 18 -13 21 4 19 22 -2 26 -10 2 -16 -3 -16
-13z"/>
<path d="M5840 14346 c0 -9 5 -16 10 -16 6 0 10 4 10 9 0 6 -4 13 -10 16 -5 3
-10 -1 -10 -9z"/>
<path d="M18245 14354 c-11 -3 -37 -12 -58 -20 -33 -12 -41 -12 -67 1 -44 23
-87 19 -116 -10 -23 -23 -24 -27 -17 -112 8 -89 8 -148 2 -259 -3 -51 0 -66
15 -83 35 -39 66 -25 106 49 30 55 41 67 75 78 53 17 65 29 65 66 0 43 -9 52
-59 66 -61 16 -95 52 -87 93 9 42 33 77 54 77 28 0 143 -39 176 -59 33 -21 96
-45 159 -63 21 -6 44 -20 52 -32 21 -33 29 -93 16 -124 -15 -36 -41 -52 -115
-69 -69 -16 -96 -39 -96 -82 l0 -31 152 5 c122 4 157 8 182 23 l31 18 2 165
c1 90 3 186 4 213 3 41 0 51 -21 68 -21 17 -37 19 -120 17 -52 -2 -144 0 -205
3 -60 4 -119 5 -130 2z"/>
<path d="M17113 14330 c-29 -12 -37 -44 -23 -95 12 -43 9 -217 -5 -282 -6 -27
-3 -36 20 -57 25 -24 36 -26 111 -26 109 0 124 -12 124 -103 0 -42 -5 -70 -17
-87 -16 -23 -16 -24 19 -54 45 -39 71 -91 65 -125 -15 -73 40 -139 107 -128
46 7 72 -11 103 -73 33 -65 68 -89 110 -74 43 14 41 49 -7 131 -22 38 -40 79
-40 91 0 11 19 42 43 67 48 54 55 68 56 112 1 44 -27 60 -107 62 -35 0 -75 6
-89 13 -36 18 -64 74 -61 123 4 54 31 63 133 46 85 -14 111 -9 121 22 10 30
12 408 2 429 -8 16 -36 17 -326 17 -174 0 -327 -4 -339 -9z"/>
<path d="M5980 14290 c0 -5 7 -10 16 -10 8 0 12 5 9 10 -3 6 -10 10 -16 10 -5
0 -9 -4 -9 -10z"/>
<path d="M6270 14200 c0 -5 5 -10 10 -10 6 0 10 5 10 10 0 6 -4 10 -10 10 -5
0 -10 -4 -10 -10z"/>
<path d="M5687 14105 c-4 -8 -3 -16 1 -18 16 -8 117 -1 117 8 0 6 -19 10 -42
10 -22 0 -44 3 -49 8 -11 11 -21 8 -27 -8z"/>
<path d="M5947 14113 c-14 -13 -7 -33 11 -33 26 0 34 11 21 27 -13 14 -22 16
-32 6z"/>
<path d="M6256 14105 c-18 -13 -17 -14 8 -21 31 -7 41 -1 33 21 -8 18 -16 19
-41 0z"/>
<path d="M6780 14109 c-8 -5 -69 -9 -135 -10 -149 -2 -132 -7 38 -11 96 -3
127 -1 127 8 0 18 -14 24 -30 13z"/>
<path d="M6936 14105 c-7 -20 6 -24 69 -22 60 2 68 22 8 22 -22 0 -45 3 -49 8
-12 11 -21 8 -28 -8z"/>
<path d="M6430 14095 c0 -16 28 -19 69 -8 23 6 23 7 5 14 -34 13 -74 10 -74
-6z"/>
<path d="M6068 14093 c28 -2 76 -2 105 0 28 2 5 3 -53 3 -58 0 -81 -1 -52 -3z"/>
<path d="M6780 13950 c-13 -9 -13 -11 0 -20 9 -6 18 -6 24 0 15 15 -6 31 -24
20z"/>
<path d="M5690 13934 c0 -17 22 -14 28 4 2 7 -3 12 -12 12 -9 0 -16 -7 -16
-16z"/>
<path d="M5755 13940 c3 -5 17 -10 31 -10 13 0 24 5 24 10 0 6 -14 10 -31 10
-17 0 -28 -4 -24 -10z"/>
<path d="M5943 13938 c2 -7 10 -13 17 -13 7 0 15 6 18 13 2 7 -5 12 -18 12
-13 0 -20 -5 -17 -12z"/>
<path d="M6263 13938 c2 -7 10 -13 17 -13 7 0 15 6 18 13 2 7 -5 12 -18 12
-13 0 -20 -5 -17 -12z"/>
<path d="M6435 13940 c3 -5 15 -10 25 -10 10 0 22 5 25 10 4 6 -7 10 -25 10
-18 0 -29 -4 -25 -10z"/>
<path d="M6940 13935 c0 -8 4 -15 9 -15 5 0 14 7 21 15 10 13 9 15 -9 15 -12
0 -21 -6 -21 -15z"/>
<path d="M7010 13940 c0 -5 11 -10 25 -10 14 0 25 5 25 10 0 6 -11 10 -25 10
-14 0 -25 -4 -25 -10z"/>
<path d="M6270 13835 c0 -8 5 -15 10 -15 6 0 10 7 10 15 0 8 -4 15 -10 15 -5
0 -10 -7 -10 -15z"/>
<path d="M6742 13758 c6 -18 28 -21 28 -4 0 9 -7 16 -16 16 -9 0 -14 -5 -12
-12z"/>
<path d="M5980 13750 c0 -5 7 -10 15 -10 8 0 15 5 15 10 0 6 -7 10 -15 10 -8
0 -15 -4 -15 -10z"/>
<path d="M6894 13708 c-8 -13 42 -61 59 -55 22 7 19 27 -5 25 -17 -2 -24 3
-26 20 -4 24 -17 29 -28 10z"/>
<path d="M18053 13700 c-36 -15 -46 -44 -24 -71 18 -22 20 -22 77 -10 43 10
127 13 313 10 228 -4 255 -2 264 13 8 12 7 21 -3 33 -13 15 -25 17 -95 10
-134 -13 -442 -1 -495 18 -8 3 -25 2 -37 -3z"/>
<path d="M5836 13673 c-6 -14 -5 -15 5 -6 7 7 10 15 7 18 -3 3 -9 -2 -12 -12z"/>
<path d="M5780 13665 c0 -8 6 -15 14 -15 22 0 28 17 10 24 -22 9 -24 8 -24 -9z"/>
<path d="M17130 13656 c0 -19 40 -31 70 -21 34 11 17 30 -28 33 -32 2 -42 0
-42 -12z"/>
<path d="M6270 13640 c0 -5 5 -10 10 -10 6 0 10 5 10 10 0 6 -4 10 -10 10 -5
0 -10 -4 -10 -10z"/>
<path d="M6694 13609 c-10 -17 13 -36 27 -22 12 12 4 33 -11 33 -5 0 -12 -5
-16 -11z"/>
<path d="M6020 13601 c0 -13 26 -32 33 -24 14 13 6 33 -13 33 -11 0 -20 -4
-20 -9z"/>
<path d="M6845 13562 c-13 -9 -47 -82 -38 -82 3 0 16 11 28 24 12 13 28 25 35
28 8 2 11 11 7 21 -7 18 -16 21 -32 9z"/>
<path d="M5877 13553 c-14 -13 -6 -33 12 -33 10 0 21 -9 24 -20 3 -11 12 -20
21 -20 22 0 20 17 -4 30 -11 6 -20 20 -20 30 0 19 -20 27 -33 13z"/>
<path d="M6080 13501 c0 -6 5 -13 10 -16 6 -3 10 1 10 9 0 9 -4 16 -10 16 -5
0 -10 -4 -10 -9z"/>
<path d="M6615 13460 c-3 -5 -1 -10 4 -10 6 0 11 5 11 10 0 6 -2 10 -4 10 -3
0 -8 -4 -11 -10z"/>
<path d="M6120 13450 c0 -5 5 -10 10 -10 6 0 10 5 10 10 0 6 -4 10 -10 10 -5
0 -10 -4 -10 -10z"/>
<path d="M6267 13374 c-13 -13 -7 -24 14 -24 11 0 19 5 17 12 -5 14 -22 21
-31 12z"/>
<path d="M6445 13360 c-4 -6 5 -10 19 -10 14 0 26 5 26 10 0 6 -9 10 -19 10
-11 0 -23 -4 -26 -10z"/>
<path d="M9630 13279 c-13 -6 -32 -17 -42 -26 -41 -37 -30 -138 19 -170 23
-15 25 -15 42 3 23 24 54 131 49 169 -3 33 -26 41 -68 24z"/>
<path d="M19515 12320 c-11 -5 -971 -9 -2132 -9 l-2113 -1 -19 -39 -20 -38 22
-21 c20 -19 31 -21 82 -16 33 3 377 7 765 8 641 2 709 4 750 20 41 15 96 17
630 14 489 -3 589 -5 610 -18 21 -12 126 -14 711 -11 l687 3 28 -36 c33 -41
53 -45 79 -16 10 11 26 20 35 20 35 0 49 40 34 98 -12 42 -94 66 -149 42z"/>
<path d="M1914 12105 c-58 -9 -88 -19 -103 -34 -11 -11 -27 -21 -33 -22 -7 0
-47 -24 -88 -52 -74 -52 -118 -108 -247 -313 -67 -105 -85 -336 -38 -481 47
-143 97 -223 211 -336 79 -77 205 -146 314 -172 83 -19 217 -19 297 0 69 16
186 66 197 84 4 6 22 11 41 11 27 0 40 -8 69 -42 20 -23 37 -51 37 -62 1 -12
2 -43 3 -71 2 -63 24 -109 55 -113 18 -3 40 14 99 73 41 42 95 87 119 101 37
23 43 30 43 60 0 45 -29 63 -116 71 -64 6 -72 9 -112 49 -40 39 -43 46 -37 76
4 18 19 44 32 58 67 67 126 256 125 400 0 141 -54 311 -125 396 -13 16 -40 54
-60 84 -19 30 -45 64 -58 76 -35 30 -147 104 -159 104 -5 0 -20 10 -32 22 -42
42 -268 59 -434 33z m368 -227 c86 -40 136 -75 185 -129 179 -197 197 -458 46
-666 -65 -89 -144 -153 -243 -195 -71 -31 -81 -33 -195 -32 -120 0 -120 0
-205 41 -202 98 -326 288 -323 493 3 232 148 422 388 512 40 15 72 18 160 15
102 -3 115 -5 187 -39z"/>
<path d="M1995 11764 c-79 -41 -99 -77 -100 -184 0 -69 -4 -91 -21 -115 -19
-28 -20 -44 -19 -217 2 -234 -1 -228 124 -227 47 1 127 -2 177 -6 50 -4 101
-4 112 0 40 12 45 40 46 239 2 245 13 231 -172 223 -79 -4 -142 -2 -153 3 -20
11 -36 102 -25 144 8 33 82 86 120 86 23 0 42 -12 83 -55 29 -30 59 -55 66
-55 20 0 37 22 37 47 0 27 -61 98 -101 119 -37 19 -136 18 -174 -2z"/>
<path d="M464 12096 c-8 -22 3 -33 18 -18 9 9 9 15 0 24 -9 9 -13 7 -18 -6z"/>
<path d="M2881 12100 c-16 -9 -6 -30 15 -30 15 0 20 25 6 34 -4 2 -14 1 -21
-4z"/>
<path d="M16888 12099 c-11 -7 -12 -34 -8 -214 5 -186 -9 -215 -116 -253 -99
-36 -57 -67 61 -46 98 17 1207 21 1265 4 73 -21 96 15 29 46 -61 27 -72 61
-64 191 9 125 0 220 -23 251 l-18 23 -558 2 c-307 1 -563 -1 -568 -4z"/>
<path d="M6556 10882 c-7 -11 4 -52 14 -52 17 0 53 37 46 48 -8 14 -52 16 -60
4z"/>
<path d="M2899 10623 c-40 -43 -102 -100 -172 -156 -46 -37 -84 -98 -72 -117
3 -5 18 -11 35 -15 16 -3 39 -14 52 -24 13 -10 41 -27 63 -39 38 -19 92 -76
253 -269 29 -35 56 -63 60 -63 4 0 43 -43 86 -95 44 -52 91 -99 106 -105 26
-11 31 -8 102 63 41 41 93 87 116 102 44 29 49 43 31 78 -16 28 -249 293 -389
442 -26 28 -53 62 -61 76 -8 15 -40 57 -73 93 -69 78 -88 82 -137 29z"/>
<path d="M7164 10445 c-3 -8 -22 -19 -42 -26 -21 -6 -46 -18 -57 -25 -11 -8
-29 -14 -41 -14 -12 0 -27 -7 -34 -15 -7 -8 -16 -15 -21 -15 -5 0 -35 -25 -65
-55 -31 -30 -59 -53 -63 -50 -11 6 -111 -103 -111 -121 0 -8 -11 -39 -24 -67
-28 -63 -66 -155 -74 -182 -3 -11 -14 -28 -23 -39 -10 -10 -21 -33 -24 -50
-15 -72 -37 -125 -55 -131 -13 -4 -21 -19 -25 -43 -3 -20 -8 -48 -11 -62 -3
-14 -9 -56 -13 -95 -3 -38 -12 -80 -20 -93 -9 -17 -11 -44 -6 -95 5 -53 3 -82
-8 -112 -9 -22 -21 -110 -27 -197 -8 -104 -18 -176 -31 -213 -10 -30 -19 -66
-19 -81 0 -36 -29 -162 -47 -203 -9 -18 -19 -65 -24 -104 -5 -38 -16 -83 -24
-100 -8 -17 -15 -57 -15 -92 0 -38 -7 -75 -17 -95 -12 -25 -17 -68 -20 -172
-2 -99 -7 -147 -18 -168 -12 -23 -14 -50 -8 -131 5 -76 3 -100 -5 -95 -14 8
-15 -37 -3 -68 4 -10 -1 -55 -11 -100 -11 -44 -22 -106 -27 -138 -4 -31 -14
-64 -22 -74 -10 -12 -13 -40 -12 -95 1 -43 -3 -81 -8 -84 -5 -4 -9 -176 -9
-426 0 -472 -3 -449 77 -515 26 -21 80 -68 119 -104 38 -36 92 -76 118 -89 27
-13 88 -64 141 -116 52 -52 104 -99 117 -106 13 -7 55 -37 93 -68 92 -74 142
-111 150 -111 9 0 121 -91 157 -127 28 -28 45 -74 33 -93 -3 -5 -23 -10 -43
-10 -20 0 -44 -5 -52 -11 -13 -9 -12 -12 4 -22 19 -11 36 -28 91 -87 26 -28
45 -63 45 -81 0 -22 -78 -2 -134 35 -29 19 -66 41 -82 47 -16 7 -36 18 -44 25
-8 6 -46 24 -85 39 -38 15 -92 38 -120 50 -176 82 -248 116 -400 190 l-170 83
-85 2 c-47 0 -116 6 -155 11 -38 6 -133 10 -210 10 -77 0 -194 5 -260 10 -136
13 -166 12 -178 0 -34 -34 -25 -217 12 -253 25 -23 146 -88 164 -88 7 0 30 -9
52 -20 22 -11 47 -20 57 -20 9 0 55 -9 100 -19 193 -46 267 -60 328 -66 84 -8
228 -36 410 -78 80 -19 188 -37 240 -41 106 -8 287 -45 368 -76 29 -11 60 -20
69 -20 47 0 163 -81 163 -114 0 -15 -65 -36 -110 -36 -27 0 -50 -4 -50 -8 0
-5 27 -16 59 -25 64 -18 77 -34 66 -80 -6 -23 -17 -28 -118 -51 -62 -14 -150
-28 -197 -31 -169 -12 -497 -47 -570 -60 -129 -23 -189 -61 -170 -109 6 -18
14 -21 52 -18 27 2 72 -6 118 -22 41 -13 122 -31 180 -40 140 -20 329 -70 412
-108 82 -37 115 -79 120 -152 3 -49 3 -50 -30 -57 -18 -4 -35 -9 -38 -12 -10
-9 51 -62 101 -87 28 -14 51 -32 53 -41 4 -24 -76 -49 -157 -49 l-66 -1 30
-25 c17 -14 53 -36 81 -50 29 -13 68 -35 88 -49 31 -21 102 -57 236 -119 19
-9 53 -27 75 -41 73 -45 87 -31 63 60 -10 38 -10 59 5 130 16 79 16 89 1 155
-9 40 -32 99 -55 137 -61 106 -61 172 0 238 15 17 44 58 65 91 36 62 51 74 87
74 22 0 39 -36 39 -83 0 -46 28 -220 51 -308 10 -42 19 -95 19 -118 0 -23 7
-83 15 -134 8 -50 19 -155 25 -232 14 -188 12 -187 210 -245 41 -12 125 -48
186 -80 84 -44 125 -60 170 -65 32 -3 84 -18 114 -33 38 -18 69 -26 100 -25
49 2 158 -27 193 -52 25 -17 157 -22 157 -5 0 6 -4 10 -10 10 -5 0 -10 9 -10
21 0 11 -4 17 -10 14 -6 -4 -10 11 -10 37 0 49 -39 208 -62 253 -9 19 -14 53
-13 90 3 94 2 91 34 89 43 -3 199 -111 235 -163 17 -24 45 -51 61 -61 17 -9
56 -42 89 -73 32 -31 64 -57 70 -57 6 0 33 -16 60 -35 27 -19 56 -35 63 -35
16 0 100 -37 117 -51 48 -40 135 -88 169 -93 23 -4 47 -12 54 -17 7 -6 39 -13
73 -16 49 -5 60 -3 60 9 0 18 25 24 133 34 51 4 77 11 77 19 0 7 3 27 6 44 6
30 5 31 -26 31 l-33 0 6 97 c4 54 7 121 7 150 0 46 2 52 23 55 20 3 22 9 25
70 2 38 7 68 12 68 6 0 10 7 10 15 0 8 5 15 10 15 6 0 10 38 10 95 l0 95 40 0
c36 0 40 -2 40 -25 0 -18 5 -25 20 -25 10 0 23 6 27 14 6 12 49 17 192 24 155
7 185 11 193 25 14 25 48 22 48 -4 0 -19 4 -21 31 -15 17 3 35 6 40 6 5 0 9
56 9 125 l0 125 45 0 45 0 0 65 0 65 65 0 c58 0 65 2 65 20 0 13 7 20 20 20
17 0 20 7 20 45 l0 45 46 0 47 0 -7 -105 c-4 -70 -3 -105 4 -105 6 0 10 79 10
230 0 147 -4 230 -10 230 -19 0 -10 42 9 47 14 3 22 18 27 46 5 28 9 35 12 22
2 -11 7 -22 11 -25 24 -19 42 -93 51 -211 5 -72 7 -135 5 -139 -5 -8 4 -187
25 -505 10 -149 29 -242 52 -256 8 -5 13 -39 15 -90 2 -72 13 -112 27 -98 6 5
6 24 2 504 -2 387 -22 1127 -30 1160 -60 239 -79 703 -66 1625 5 338 13 633
18 655 12 47 36 290 57 572 11 154 20 215 36 259 19 49 21 71 16 163 -5 107 6
214 40 372 21 101 15 176 -18 210 -30 31 -54 27 -75 -12 -13 -26 -14 -62 -8
-248 8 -242 5 -272 -32 -327 -34 -50 -50 -181 -58 -474 -5 -190 -8 -217 -25
-240 -21 -29 -24 -52 -41 -275 -15 -196 -36 -384 -44 -392 -3 -4 -9 -3 -13 0
-10 10 -24 207 -26 361 -1 97 -6 141 -14 143 -8 3 -10 30 -7 93 l5 89 -43 3
c-42 3 -43 4 -46 39 -2 27 -9 38 -23 42 -15 4 -19 14 -19 46 0 37 2 41 25 41
18 0 25 -5 25 -20 0 -15 7 -20 25 -20 24 0 25 2 25 66 l0 66 -70 -4 -70 -3 0
43 c0 35 -3 42 -20 42 -13 0 -20 7 -20 20 0 17 -7 20 -45 20 -38 0 -45 3 -45
20 0 13 -7 20 -19 20 -21 0 -29 27 -27 95 l1 45 -42 0 c-40 0 -43 2 -43 28 0
54 -13 102 -26 102 -8 0 -14 9 -14 20 0 11 -7 20 -15 20 -11 0 -15 12 -15 45
0 25 -4 45 -8 45 -10 0 -7 170 3 223 7 34 10 37 41 37 19 0 34 4 34 9 0 10
105 24 173 23 26 0 47 4 47 9 0 5 29 9 65 9 37 0 65 -4 65 -10 0 -5 11 -10 25
-10 20 0 25 5 25 25 0 14 -4 25 -10 25 -5 0 -10 9 -10 20 0 11 -7 20 -15 20
-9 0 -15 9 -15 25 0 23 -4 25 -44 25 -40 0 -44 2 -49 29 -7 33 -32 43 -92 34
-38 -5 -45 -2 -76 28 -58 58 -210 121 -334 138 -27 4 -63 14 -80 23 -27 14
-176 50 -193 46 -4 -1 -14 2 -22 5 -8 3 -73 16 -145 28 -71 12 -161 27 -200
35 -38 7 -117 22 -173 33 -57 11 -132 27 -166 35 -34 9 -69 16 -77 16 -8 0
-26 7 -42 15 -15 8 -52 19 -83 24 -159 30 -462 148 -521 203 -23 22 -52 40
-91 58 -37 16 -127 106 -226 225 -50 61 -100 118 -111 127 -26 24 -114 74
-143 83 -13 4 -50 24 -82 46 -33 21 -62 39 -65 39 -4 0 -18 9 -32 20 -14 11
-38 20 -53 20 -19 0 -33 8 -45 26 -10 15 -40 50 -67 78 -73 76 -81 86 -113
141 -29 51 -65 95 -123 150 -61 59 -263 110 -278 70z m-37 -4513 c13 -13 23
-27 23 -32 0 -6 9 -10 19 -10 40 0 70 -81 35 -94 -20 -8 -34 1 -34 20 0 8 -4
14 -10 14 -11 0 -60 -48 -60 -59 0 -5 -28 0 -62 11 -35 11 -95 21 -134 22 -62
2 -74 5 -97 28 -18 18 -27 38 -27 58 0 17 4 29 9 26 4 -3 19 3 31 14 13 11 29
20 37 20 7 0 13 4 13 10 0 13 179 17 210 5 13 -5 34 -20 47 -33z m-41 -244
c200 -182 203 -199 20 -136 -108 37 -136 55 -136 88 0 30 39 71 78 79 1 1 19
-14 38 -31z m3963 -543 c7 -148 16 -315 21 -370 4 -55 5 -124 3 -152 -5 -48
-8 -53 -29 -53 -13 0 -24 5 -24 11 0 6 -7 17 -15 25 -12 13 -15 54 -17 227 -4
504 -3 542 9 555 7 7 16 32 20 55 l7 42 7 -35 c3 -19 12 -156 18 -305z m-3859
-195 c0 -5 -2 -10 -4 -10 -3 0 -8 5 -11 10 -3 6 -1 10 4 10 6 0 11 -4 11 -10z"/>
<path d="M311 10414 c-26 -33 -26 -40 2 -81 24 -36 41 -41 55 -16 9 15 49 16
450 14 384 -2 444 0 471 13 26 14 83 16 391 16 271 0 367 -3 383 -12 16 -9 96
-14 275 -16 277 -4 287 -1 241 52 l-23 26 -1092 0 c-958 0 -1093 2 -1104 15
-17 21 -25 19 -49 -11z"/>
<path d="M1325 10175 c8 -129 1 -155 -50 -179 -47 -23 -41 -43 11 -36 21 3
218 5 437 5 218 0 397 2 397 5 0 3 -13 17 -30 32 -22 19 -30 36 -31 60 0 18
-2 70 -3 115 -1 46 -7 88 -13 94 -8 8 -117 12 -368 13 l-356 1 6 -110z"/>
<path d="M3612 9872 c-8 -2 -42 -33 -77 -67 -35 -35 -82 -76 -104 -91 -61 -40
-53 -74 27 -114 51 -27 75 -22 140 26 51 39 91 103 92 147 0 63 -39 113 -78
99z"/>
<path d="M10968 8643 c-2 -10 -1 -31 3 -48 4 -16 7 -24 8 -17 0 6 8 12 16 12
10 0 15 11 15 35 0 28 -4 35 -19 35 -10 0 -21 -8 -23 -17z"/>
<path d="M12437 8303 c-24 -24 22 -64 49 -42 8 6 14 20 14 30 0 14 -7 19 -28
19 -16 0 -32 -3 -35 -7z"/>
<path d="M14476 8224 c-15 -38 9 -256 32 -301 5 -10 13 -45 16 -78 4 -33 14
-100 23 -150 15 -91 16 -155 11 -1450 -1 -121 3 -232 7 -248 l7 -27 -57 2
c-52 3 -59 1 -78 -24 l-20 -27 28 -41 c36 -52 44 -123 20 -171 -9 -19 -42 -58
-73 -87 -55 -52 -58 -53 -106 -49 -38 3 -53 0 -67 -14 -33 -33 -23 -59 46
-126 115 -114 114 -191 -7 -305 l-71 -66 20 -34 c19 -32 21 -33 82 -33 69 0
74 -4 138 -97 35 -51 40 -156 11 -209 -18 -32 -19 -41 -8 -73 17 -52 48 -57
112 -17 59 37 108 42 159 16 94 -49 129 -100 129 -190 l0 -56 42 -19 c50 -22
60 -17 89 46 12 25 33 48 53 59 52 28 62 14 21 -30 -36 -40 -42 -54 -47 -110
-3 -27 -7 -31 -51 -39 -44 -8 -51 -6 -75 17 -15 13 -37 30 -49 36 -13 6 -23
18 -23 26 0 21 -34 35 -82 34 -24 0 -57 2 -74 6 -24 5 -39 1 -69 -19 -21 -14
-48 -26 -60 -26 -36 0 -102 58 -120 107 -19 50 -33 54 -59 15 -10 -16 -34 -39
-52 -51 -18 -13 -36 -31 -39 -41 -10 -31 -35 -31 -90 0 -29 16 -62 30 -73 30
-27 0 -42 -27 -35 -63 13 -67 -43 -117 -130 -117 -29 0 -53 -7 -68 -19 -22
-17 -22 -19 -7 -52 21 -44 32 -103 24 -132 -3 -13 -18 -27 -35 -33 -16 -7 -41
-30 -57 -53 l-27 -42 39 -40 c21 -22 49 -44 62 -49 32 -13 31 -78 -2 -111 -36
-37 -41 -64 -16 -89 15 -15 29 -20 43 -16 36 9 97 -15 123 -50 20 -25 24 -42
23 -78 -4 -70 9 -76 86 -38 36 18 65 36 65 41 0 13 -33 38 -65 48 -17 5 -36
21 -43 37 -8 15 -25 32 -38 38 -13 6 -24 17 -24 24 0 7 -15 30 -33 52 -65 77
-88 228 -54 341 42 138 137 236 287 297 57 23 75 26 150 22 116 -6 216 -54
298 -143 58 -63 75 -92 106 -180 39 -109 41 -123 28 -168 -7 -23 -17 -57 -22
-75 -22 -88 -157 -239 -228 -257 -14 -3 -38 -15 -53 -26 -24 -17 -47 -20 -150
-22 -137 -2 -152 -11 -93 -51 22 -15 42 -39 48 -58 16 -49 40 -47 70 5 47 80
138 98 206 41 45 -38 60 -27 60 45 0 57 2 61 43 100 42 41 52 44 120 41 47 -2
56 18 28 63 -42 68 -19 150 52 182 34 16 42 25 42 47 0 20 -11 33 -50 60 -45
30 -50 37 -53 74 -3 34 3 49 32 88 20 25 36 50 36 55 0 16 -25 29 -69 35 -81
11 -137 63 -129 118 3 19 6 17 30 -19 31 -47 70 -64 138 -60 42 2 46 0 60 -30
8 -18 20 -33 27 -33 11 0 53 51 53 65 0 16 43 65 57 65 8 0 26 9 40 20 14 11
32 20 39 20 14 0 105 58 116 74 4 6 4 23 1 38 -5 25 -3 27 13 22 25 -9 74 -55
74 -69 0 -6 10 -21 23 -33 22 -21 24 -21 51 -4 26 15 29 24 31 73 4 91 49 150
149 199 57 27 103 23 147 -14 35 -30 65 -33 97 -10 30 21 28 50 -8 91 -24 27
-30 43 -30 81 0 64 44 138 108 186 43 31 57 36 105 36 45 0 58 4 67 19 15 30
12 49 -12 69 -75 60 -98 87 -112 129 -22 64 -20 96 7 130 12 15 35 47 50 71
15 23 33 42 41 42 24 0 49 37 42 64 -10 42 -30 54 -83 49 -42 -4 -54 -1 -98
29 -64 43 -109 123 -102 183 2 22 16 58 31 80 19 28 25 47 21 65 -14 57 -65
64 -140 20 -27 -16 -57 -30 -65 -30 -25 0 -131 60 -162 92 -37 38 -48 67 -48
128 0 41 -4 52 -26 69 -35 28 -51 26 -68 -6 -25 -46 -91 -111 -121 -119 -36
-9 -61 7 -57 38 1 13 -7 34 -18 46 -12 12 -23 42 -26 69 -7 57 -52 194 -69
208 -7 6 -15 20 -19 33 -4 12 -12 22 -17 22 -5 0 -9 8 -9 18 0 20 -38 104 -51
112 -5 3 -10 73 -12 155 -2 105 -6 150 -15 153 -7 2 -12 14 -12 28 0 17 -4 22
-15 18 -11 -4 -15 0 -15 16 0 12 -6 36 -14 53 -8 18 -16 67 -19 109 -5 71 -19
108 -42 108 -18 0 -45 41 -55 84 -6 26 -17 61 -25 77 -8 15 -15 45 -15 67 0
45 -24 135 -46 175 -9 16 -19 68 -23 116 -4 48 -11 93 -15 99 -4 7 -11 39 -17
72 -5 34 -22 89 -38 123 -15 34 -31 77 -35 96 -10 54 -37 78 -50 45z m409
-1955 c5 -16 -1 -30 -26 -55 -43 -44 -58 -31 -33 30 21 50 48 61 59 25z m106
-35 c9 -40 18 -58 33 -64 29 -11 69 -56 61 -69 -23 -38 -115 25 -139 96 -24
69 -21 93 8 93 22 0 26 -7 37 -56z m-152 -126 c1 -5 -3 -8 -9 -8 -5 0 -10 12
-9 28 0 24 1 25 9 7 5 -11 9 -23 9 -27z m-59 -92 c0 -19 -75 -69 -97 -63 -14
3 -10 8 17 20 19 8 41 25 48 36 14 24 32 28 32 7z m554 -46 c72 -25 131 -55
201 -105 68 -48 172 -155 195 -200 8 -17 24 -43 36 -60 12 -16 33 -61 46 -100
20 -61 23 -89 23 -225 0 -137 -3 -163 -23 -220 -13 -36 -34 -81 -46 -100 -110
-170 -146 -207 -279 -290 -122 -75 -210 -100 -357 -100 -106 0 -131 4 -215 30
-52 17 -97 35 -100 40 -3 5 -30 23 -59 40 -144 82 -284 267 -323 428 -22 91
-22 267 0 352 29 108 109 245 192 326 104 101 268 188 385 205 83 11 264 0
324 -21z"/>
<path d="M14765 5452 c-5 -4 -21 -23 -35 -42 -22 -32 -25 -46 -27 -142 -1 -84
2 -110 14 -119 8 -7 21 -25 29 -40 26 -51 76 -47 104 8 8 15 20 35 27 44 12
14 6 16 -60 11 -83 -5 -95 4 -76 55 6 16 7 54 3 90 l-6 63 61 0 c52 0 61 3 61
18 0 45 -60 80 -95 54z"/>
<path d="M15002 5454 c-7 -3 -19 -19 -28 -35 -8 -17 -26 -34 -40 -40 l-26 -9
20 -23 c35 -38 87 -101 110 -131 26 -34 18 -49 -34 -66 -43 -15 -43 -46 -1
-70 31 -17 26 -20 96 71 24 31 24 31 6 62 -10 18 -31 46 -47 62 -48 50 -88 96
-88 101 0 2 18 7 40 10 22 4 48 12 57 20 35 26 -20 66 -65 48z"/>
<path d="M15235 5452 c-5 -4 -25 -24 -43 -44 -42 -45 -39 -55 39 -144 33 -37
58 -74 57 -83 -2 -8 -22 -21 -45 -29 -47 -15 -53 -32 -23 -62 33 -33 47 -28
98 38 41 53 38 80 -16 132 -45 42 -86 106 -77 120 3 5 15 10 26 10 31 0 59 19
59 39 0 27 -50 42 -75 23z"/>
<path d="M15452 5448 c-25 -25 -14 -46 27 -53 59 -10 69 -28 37 -66 -32 -37
-33 -70 -4 -109 26 -36 15 -55 -43 -70 -46 -13 -52 -41 -14 -66 32 -21 54 -12
93 38 36 47 39 63 17 104 -17 34 -20 115 -4 131 14 14 4 44 -26 77 -25 28 -63
34 -83 14z"/>
<path d="M3326 6813 c-75 -78 -67 -138 35 -253 69 -79 83 -112 57 -138 -17
-17 -59 -15 -86 4 -26 18 -52 5 -52 -27 0 -23 85 -89 114 -89 44 1 116 90 116
144 0 53 -19 83 -117 180 -33 33 -41 67 -23 96 6 10 26 15 62 15 67 0 74 21
25 70 -48 48 -83 47 -131 -2z"/>
<path d="M3643 6840 c-39 -16 -67 -86 -63 -160 5 -111 4 -193 -4 -235 -9 -52
10 -90 44 -90 23 0 25 4 30 57 3 31 7 58 10 60 3 2 28 19 57 37 64 40 113 110
113 161 0 44 -43 133 -74 153 -31 20 -86 29 -113 17z m88 -121 c16 -11 29 -28
29 -37 0 -22 -50 -72 -71 -72 -45 0 -66 74 -32 112 21 23 38 23 74 -3z"/>
<path d="M11407 6826 c-7 -17 13 -26 58 -26 40 0 53 15 26 29 -28 16 -78 13
-84 -3z"/>
<path d="M3030 6798 c-11 -18 -20 -51 -20 -72 0 -41 -34 -238 -51 -292 -14
-46 -11 -62 12 -75 18 -9 26 -6 61 31 49 51 75 50 101 -2 22 -45 53 -51 67
-14 9 24 -15 170 -37 226 -6 14 -14 61 -18 105 -8 96 -24 125 -65 125 -23 0
-35 -7 -50 -32z"/>
<path d="M5055 6806 c-9 -13 -18 -48 -21 -77 -6 -72 -33 -245 -45 -290 -13
-54 -11 -67 12 -74 16 -6 28 1 51 29 41 50 70 48 100 -6 25 -46 44 -54 61 -26
14 22 -7 135 -38 205 -20 45 -23 63 -18 126 7 93 -11 137 -57 137 -20 0 -35
-8 -45 -24z"/>
<path d="M5599 6813 c-9 -10 -15 -51 -17 -117 -3 -68 -8 -106 -18 -116 -14
-17 -44 -143 -44 -189 0 -33 25 -60 41 -44 6 6 18 25 27 44 26 52 61 51 96 -1
22 -34 32 -41 54 -38 21 2 28 9 30 30 2 15 -2 37 -8 48 -6 12 -22 93 -35 181
-28 182 -42 219 -84 219 -16 0 -35 -7 -42 -17z"/>
<path d="M4845 6800 c-16 -18 -17 -35 -11 -183 l8 -164 -36 -23 c-43 -26 -60
-54 -52 -85 6 -24 41 -39 62 -27 6 4 29 30 51 57 l39 50 -2 175 c-1 96 -3 180
-3 187 -1 7 -9 17 -20 22 -14 8 -23 6 -36 -9z"/>
<path d="M12495 6810 c-6 -9 55 -31 65 -23 7 6 -31 33 -46 33 -7 0 -15 -4 -19
-10z"/>
<path d="M5234 6785 c-8 -32 2 -86 21 -111 15 -19 15 -19 30 0 18 24 19 95 1
119 -19 25 -45 21 -52 -8z"/>
<path d="M5456 6795 c-21 -21 -30 -58 -22 -90 8 -32 29 -32 55 1 26 33 27 66
2 88 -17 16 -20 16 -35 1z"/>
<path d="M12730 6729 c0 -5 16 -9 35 -9 19 0 35 4 35 8 0 4 -16 8 -35 9 -19 1
-35 -3 -35 -8z"/>
<path d="M13097 6733 c-15 -14 -6 -24 20 -20 34 5 43 27 11 27 -14 0 -28 -3
-31 -7z"/>
<path d="M5365 6621 c-44 -18 -58 -48 -63 -130 -7 -130 13 -164 84 -141 49 17
56 42 45 162 -11 114 -19 128 -66 109z"/>
<path d="M15973 6443 c-8 -3 -13 -23 -13 -49 0 -37 3 -44 19 -44 23 0 30 16
24 58 -6 35 -11 42 -30 35z"/>
<path d="M15933 6027 c-31 -22 -43 -38 -43 -56 0 -55 -13 -100 -36 -126 -23
-27 -33 -85 -15 -85 5 0 19 15 30 34 12 19 27 36 34 39 19 7 86 145 94 190 7
46 -6 47 -64 4z"/>
<path d="M16147 5653 c-14 -13 -7 -42 8 -37 8 4 15 15 15 25 0 19 -11 25 -23
12z"/>
<path d="M6100 5580 l0 -68 38 9 c20 5 63 9 95 9 31 0 57 4 57 10 0 5 -21 21
-47 35 -27 14 -55 29 -63 34 -8 6 -30 16 -47 25 l-33 14 0 -68z"/>
<path d="M4065 5090 c-31 -12 -95 -87 -96 -113 -1 -12 0 -83 1 -157 2 -132 2
-136 29 -165 15 -16 35 -42 44 -57 40 -64 119 -17 151 88 9 30 -35 38 -97 17
-53 -19 -70 -11 -67 28 0 13 2 76 3 139 l2 115 30 -1 c17 -1 47 -5 67 -9 61
-12 71 -3 49 45 -26 59 -74 87 -116 70z"/>
<path d="M4349 5071 c-34 -35 -39 -77 -9 -86 11 -4 37 -6 58 -5 75 4 82 2 82
-24 0 -14 5 -37 10 -52 14 -36 2 -171 -17 -190 -10 -10 -38 -14 -89 -14 -71 0
-74 -1 -74 -24 0 -32 40 -89 72 -100 35 -12 55 -3 76 35 9 18 30 46 46 63 27
29 28 34 21 91 -9 70 -8 105 0 162 6 35 4 43 -13 52 -11 6 -26 27 -32 46 -13
39 -52 75 -82 75 -11 0 -33 -13 -49 -29z"/>
<path d="M4615 5057 c-13 -20 -13 -40 -4 -138 6 -63 13 -145 16 -184 3 -38 10
-76 15 -83 6 -7 31 -12 62 -11 28 1 66 -2 84 -6 18 -4 61 -4 97 0 64 6 65 7
65 36 0 17 -4 38 -9 47 -4 10 -4 83 1 166 8 128 7 151 -7 172 -20 31 -60 32
-79 2 -7 -13 -17 -61 -21 -108 -3 -47 -13 -95 -21 -107 -15 -23 -58 -31 -69
-14 -3 6 -14 58 -25 117 -11 59 -25 113 -31 120 -18 22 -57 17 -74 -9z"/>
<path d="M4250 4955 c0 -4 7 -20 16 -37 16 -31 16 -112 -1 -165 -13 -41 23
-26 46 19 16 31 20 53 16 87 -7 72 -22 101 -52 101 -14 0 -25 -2 -25 -5z"/>
<path d="M14408 4801 c2 -23 8 -38 13 -35 13 8 11 37 -4 58 -11 15 -12 12 -9
-23z"/>
<path d="M5957 4724 c-24 -13 -27 -20 -23 -45 3 -16 9 -42 12 -58 3 -18 19
-40 41 -57 36 -27 36 -27 114 -15 43 7 154 18 246 26 92 7 215 23 273 35 140
28 145 29 131 43 -16 16 -406 24 -397 8 5 -7 -2 -11 -18 -11 -14 0 -26 -4 -26
-10 0 -6 -33 -10 -80 -10 -71 0 -80 2 -80 18 0 11 -10 24 -22 31 -13 6 -43 22
-68 36 -52 28 -65 30 -103 9z"/>
<path d="M14380 4552 c0 -10 9 -28 20 -40 17 -18 25 -20 40 -12 23 12 25 23
10 51 -14 26 -70 27 -70 1z"/>
<path d="M11339 4513 c-32 -84 -19 -105 52 -84 28 9 44 9 59 1 12 -6 52 -14
91 -17 61 -5 69 -4 69 11 0 12 -32 32 -105 67 -122 57 -151 61 -166 22z"/>
<path d="M15872 4414 c-29 -30 -50 -59 -47 -64 9 -14 205 -13 205 1 0 6 -12
23 -28 37 -15 15 -35 39 -45 55 -10 15 -21 27 -25 27 -4 -1 -31 -26 -60 -56z"/>
<path d="M15630 4385 c-6 -8 -9 -23 -5 -34 9 -29 -19 -85 -57 -115 -28 -21
-46 -26 -92 -26 -67 0 -76 -12 -47 -61 30 -48 29 -124 -1 -149 -82 -68 -98
-84 -98 -96 0 -8 4 -14 9 -14 5 0 32 -21 60 -46 40 -36 51 -52 51 -76 0 -33
-13 -61 -41 -89 -38 -38 -17 -82 37 -73 46 7 97 -19 128 -66 23 -35 25 -46 18
-74 -18 -64 25 -78 96 -31 56 37 54 61 -7 80 -32 10 -113 91 -150 152 -31 50
-65 143 -75 203 -8 44 25 166 61 229 38 65 99 131 158 168 111 71 110 67 39
107 -53 30 -67 32 -84 11z"/>
<path d="M16156 4369 c-14 -11 -42 -25 -61 -30 -41 -12 -38 -22 13 -48 67 -35
155 -124 189 -192 37 -74 63 -161 63 -209 0 -42 -26 -134 -51 -180 -10 -19
-28 -54 -39 -78 -13 -26 -32 -47 -47 -53 -14 -5 -34 -20 -44 -33 -10 -13 -45
-39 -76 -57 -60 -34 -73 -36 -260 -42 -35 -1 -64 -6 -65 -12 -1 -5 14 -20 32
-33 19 -13 39 -37 45 -55 15 -46 36 -44 73 8 17 25 44 50 59 56 38 15 129 6
151 -14 33 -30 52 -22 52 22 0 53 11 78 58 129 l40 42 56 -6 c52 -6 56 -5 56
14 0 12 -9 36 -20 54 -41 68 -15 145 62 178 64 27 64 50 0 90 -77 47 -96 121
-46 179 37 44 29 66 -23 66 -83 1 -166 103 -147 181 4 17 2 29 -7 35 -21 13
-34 11 -63 -12z"/>
<path d="M5910 4345 c0 -8 7 -15 16 -15 14 0 14 3 4 15 -7 8 -14 15 -16 15 -2
0 -4 -7 -4 -15z"/>
<path d="M14131 3972 c-5 -9 -7 -29 -4 -44 3 -15 0 -43 -7 -63 -9 -28 -9 -40
0 -48 9 -9 17 -5 36 18 13 17 22 36 19 44 -9 22 15 41 51 41 19 0 34 4 34 9 0
13 -25 31 -51 36 -12 3 -27 9 -33 15 -15 15 -34 12 -45 -8z"/>
<path d="M14505 3980 c-3 -6 -4 -29 0 -53 5 -41 5 -42 -40 -69 -50 -30 -64
-53 -45 -71 9 -9 26 3 76 57 68 72 78 101 46 129 -21 20 -28 21 -37 7z"/>
<path d="M14345 3932 l-50 -17 2 -44 c3 -55 13 -65 56 -57 32 6 35 10 40 49 3
23 9 52 13 65 8 26 4 26 -61 4z"/>
<path d="M6624 3909 c-10 -17 12 -26 90 -35 118 -13 165 0 103 30 -41 19 -182
23 -193 5z"/>
<path d="M15900 3880 c0 -15 5 -20 18 -18 9 2 17 10 17 18 0 8 -8 16 -17 18
-13 2 -18 -3 -18 -18z"/>
<path d="M16087 3893 c-13 -12 -7 -33 8 -33 8 0 15 9 15 20 0 20 -11 26 -23
13z"/>
<path d="M15745 3780 c-3 -5 1 -10 10 -10 9 0 13 5 10 10 -3 6 -8 10 -10 10
-2 0 -7 -4 -10 -10z"/>
<path d="M11243 2965 c0 -27 2 -38 4 -22 2 15 2 37 0 50 -2 12 -4 0 -4 -28z"/>
</g>
</svg>
